<svg version="1.2" xmlns="http://www.w3.org/2000/svg" viewBox="0 0 500 500" width="500" height="500">
	<title>New Project</title>
	<style>
		tspan { white-space:pre } 
		.s0 { fill: #e18569 } 
		.s1 { fill: #000000 } 
		.s2 { fill: #ffffff } 
		.t3 { font-size: 150px;fill: #000000;font-weight: 400;font-family: "Dhurjati", "Dhurjati" } 
	</style>
	<path id="Shape 1" class="s0" d="m261.3 70.4l168.3 168.3c6.3 6.2 6.3 16.4 0 22.6l-168.3 168.3c-6.2 6.3-16.4 6.3-22.6 0l-168.3-168.3c-6.3-6.2-6.3-16.4 0-22.6l168.3-168.3c6.2-6.3 16.4-6.3 22.6 0zm0 0l168.3 168.3c6.3 6.2 6.3 16.4 0 22.6l-168.3 168.3c-6.2 6.3-16.4 6.3-22.6 0l-168.3-168.3c-6.3-6.2-6.3-16.4 0-22.6l168.3-168.3c6.2-6.3 16.4-6.3 22.6 0zm0 0l168.3 168.3c6.3 6.2 6.3 16.4 0 22.6l-168.3 168.3c-6.2 6.3-16.4 6.3-22.6 0l-168.3-168.3c-6.3-6.2-6.3-16.4 0-22.6l168.3-168.3c6.2-6.3 16.4-6.3 22.6 0z"/>
	<path id="Shape 2" class="s1" d="m253.7 87.6l157.7 157.7c2.4 2.3 2.4 6.1 0 8.4l-157.7 157.7c-2.3 2.4-6.1 2.4-8.4 0l-157.7-157.7c-2.4-2.3-2.4-6.1 0-8.4l157.7-157.7c2.3-2.4 6.1-2.4 8.4 0z"/>
	<path id="Shape 3" class="s2" d="m254.2 112.8l133 133c2.3 2.3 2.3 6.1 0 8.4l-133 133c-2.3 2.3-6.1 2.3-8.4 0l-133-133c-2.3-2.3-2.3-6.1 0-8.4l133-133c2.3-2.3 6.1-2.3 8.4 0z"/>
	<text id="B" style="transform: matrix(1,0,0,1,218,215)" >
		<tspan x="0" y="70.5" class="t3">B
</tspan>
	</text>
</svg>