<svg xmlns="http://www.w3.org/2000/svg" xmlns:xlink="http://www.w3.org/1999/xlink" width="500" zoomAndPan="magnify" viewBox="0 0 375 374.999991" height="500" preserveAspectRatio="xMidYMid meet" version="1.0"><defs><clipPath id="7d14f3d85b"><path d="M 65.53125 65.53125 L 309.46875 65.53125 L 309.46875 309.46875 L 65.53125 309.46875 Z M 65.53125 65.53125 " clip-rule="nonzero"/></clipPath><clipPath id="f1c2dfcc9a"><path d="M 187.5 65.53125 C 120.136719 65.53125 65.53125 120.136719 65.53125 187.5 C 65.53125 254.863281 120.136719 309.46875 187.5 309.46875 C 254.863281 309.46875 309.46875 254.863281 309.46875 187.5 C 309.46875 120.136719 254.863281 65.53125 187.5 65.53125 Z M 187.5 65.53125 " clip-rule="nonzero"/></clipPath><clipPath id="3fa46b5aec"><path d="M 52 97 L 268 97 L 268 244 L 52 244 Z M 52 97 " clip-rule="nonzero"/></clipPath><clipPath id="fd606ad113"><path d="M 39.121094 102.234375 L 321.570312 78.757812 L 335.449219 245.742188 L 53.003906 269.21875 Z M 39.121094 102.234375 " clip-rule="nonzero"/></clipPath><clipPath id="fd651cfca5"><path d="M 39.121094 102.234375 L 321.570312 78.757812 L 335.449219 245.742188 L 53.003906 269.21875 Z M 39.121094 102.234375 " clip-rule="nonzero"/></clipPath><clipPath id="405ba00344"><path d="M 118 113 L 334 113 L 334 261 L 118 261 Z M 118 113 " clip-rule="nonzero"/></clipPath><clipPath id="b266fce5fb"><path d="M 39.121094 102.234375 L 321.570312 78.757812 L 335.449219 245.742188 L 53.003906 269.21875 Z M 39.121094 102.234375 " clip-rule="nonzero"/></clipPath><clipPath id="1b2df318a1"><path d="M 39.121094 102.234375 L 321.570312 78.757812 L 335.449219 245.742188 L 53.003906 269.21875 Z M 39.121094 102.234375 " clip-rule="nonzero"/></clipPath></defs><g clip-path="url(#7d14f3d85b)"><g clip-path="url(#f1c2dfcc9a)"><path fill="#3164f8" d="M 65.53125 65.53125 L 309.46875 65.53125 L 309.46875 309.46875 L 65.53125 309.46875 Z M 65.53125 65.53125 " fill-opacity="1" fill-rule="nonzero"/></g></g><g clip-path="url(#3fa46b5aec)"><g clip-path="url(#fd606ad113)"><g clip-path="url(#fd651cfca5)"><path fill="#ffffff" d="M 170.5625 144.273438 C 170.5625 144.273438 189.324219 153.273438 198.074219 159.378906 C 206.765625 165.429688 246.507812 190.472656 254.027344 195.324219 C 261.546875 200.234375 268.128906 210.132812 267.644531 214.464844 C 267.480469 215.886719 266.605469 218.277344 261.328125 220.011719 C 258.359375 220.992188 241.640625 224.980469 226.0625 227.066406 C 210.480469 229.152344 168.535156 235.347656 162.378906 236.03125 C 156.226562 236.710938 115.28125 242.035156 94.839844 243.394531 C 74.34375 244.757812 58.308594 242.703125 54.792969 241.1875 C 50.523438 239.398438 51.925781 233.859375 54.148438 230.007812 C 56.367188 226.152344 75.269531 206.285156 83.402344 199.511719 C 91.523438 192.625 121.253906 166.496094 127.425781 160.5625 C 133.539062 154.636719 151.4375 138.351562 151.4375 138.351562 C 151.4375 138.351562 151.4375 138.351562 151.539062 133.433594 C 151.636719 128.511719 152.578125 124.875 156.261719 120.957031 C 159.9375 116.980469 160.933594 111.984375 159.273438 108.960938 C 157.609375 105.9375 153.171875 105.515625 147.636719 107.558594 C 142.105469 109.597656 143.097656 120.1875 143.195312 121.367188 C 143.292969 122.542969 133.667969 123.570312 133.636719 121.878906 C 133.488281 107.832031 141.53125 93.894531 159.75 97.742188 C 177.628906 101.5625 168.75 121.105469 163.933594 126.304688 C 159.113281 131.503906 160.0625 136.113281 160.476562 141.101562 C 160.847656 145.589844 66.707031 226.253906 66.679688 230.660156 C 66.59375 235.070312 127.5 227.355469 193.691406 220.101562 C 259.886719 212.847656 257.398438 208.707031 247.0625 201.210938 C 236.796875 193.875 165.175781 151.441406 165.175781 151.441406 C 165.910156 148.726562 170.5625 144.273438 170.5625 144.273438 Z M 170.5625 144.273438 " fill-opacity="1" fill-rule="nonzero"/></g></g></g><g clip-path="url(#405ba00344)"><g clip-path="url(#b266fce5fb)"><g clip-path="url(#1b2df318a1)"><path fill="#ffffff" d="M 236.707031 160.851562 C 236.707031 160.851562 255.464844 169.851562 264.214844 175.957031 C 272.90625 182.011719 312.648438 207.050781 320.167969 211.902344 C 327.691406 216.8125 334.273438 226.710938 333.785156 231.042969 C 333.621094 232.46875 332.746094 234.855469 327.472656 236.59375 C 324.503906 237.574219 307.78125 241.5625 292.203125 243.644531 C 276.621094 245.730469 234.675781 251.929688 228.523438 252.609375 C 222.367188 253.289062 181.421875 258.613281 160.984375 259.972656 C 140.492188 261.394531 124.449219 259.285156 120.9375 257.769531 C 116.664062 255.976562 118.070312 250.441406 120.289062 246.585938 C 122.507812 242.730469 141.410156 222.867188 149.542969 216.09375 C 157.667969 209.207031 187.398438 183.078125 193.566406 177.144531 C 199.679688 171.214844 217.582031 154.933594 217.582031 154.933594 C 217.582031 154.933594 217.582031 154.933594 217.679688 150.011719 C 217.777344 145.09375 218.71875 141.457031 222.402344 137.535156 C 226.085938 133.617188 227.078125 128.566406 225.414062 125.542969 C 223.75 122.519531 219.3125 122.097656 213.777344 124.136719 C 208.246094 126.179688 209.238281 136.769531 209.335938 137.945312 C 209.433594 139.121094 199.808594 140.148438 199.78125 138.457031 C 199.628906 124.410156 207.675781 110.472656 225.894531 114.324219 C 243.769531 118.144531 234.894531 137.683594 230.074219 142.882812 C 225.253906 148.085938 226.203125 152.691406 226.617188 157.683594 C 226.992188 162.167969 132.851562 242.832031 132.820312 247.238281 C 132.738281 251.648438 193.640625 243.933594 259.835938 236.679688 C 326.027344 229.429688 323.539062 225.289062 313.203125 217.789062 C 302.867188 210.292969 231.25 167.914062 231.25 167.914062 C 232.050781 165.304688 236.707031 160.851562 236.707031 160.851562 Z M 236.707031 160.851562 " fill-opacity="1" fill-rule="nonzero"/></g></g></g></svg>