<svg xmlns="http://www.w3.org/2000/svg" xmlns:xlink="http://www.w3.org/1999/xlink" width="500" zoomAndPan="magnify" viewBox="0 0 375 374.999991" height="500" preserveAspectRatio="xMidYMid meet" version="1.0"><defs><clipPath id="281425d22d"><path d="M 174 146.34375 L 197 146.34375 L 197 177 L 174 177 Z M 174 146.34375 " clip-rule="nonzero"/></clipPath></defs><g clip-path="url(#281425d22d)"><path fill="#000000" d="M 187.5 176.878906 C 186.769531 176.878906 186.183594 176.289062 186.183594 175.554688 L 186.183594 170.492188 C 186.183594 168.289062 186.988281 166.234375 188.453125 164.695312 C 189.550781 163.519531 190.941406 161.976562 191.96875 160.949219 C 193.652344 159.1875 194.382812 157.28125 194.238281 155.371094 C 193.945312 151.847656 190.796875 148.984375 187.355469 149.058594 C 185.230469 149.132812 183.253906 150.160156 182.007812 151.847656 C 181.789062 152.070312 181.640625 152.289062 181.496094 152.507812 C 180.617188 153.902344 179.226562 156.03125 176.367188 156.546875 C 175.636719 156.691406 174.976562 156.179688 174.832031 155.519531 C 174.683594 154.785156 175.195312 154.125 175.855469 153.976562 C 177.613281 153.683594 178.417969 152.363281 179.226562 151.113281 C 179.445312 150.820312 179.589844 150.527344 179.738281 150.308594 C 181.566406 147.886719 184.277344 146.492188 187.28125 146.417969 C 192.261719 146.34375 196.433594 150.234375 196.875 155.152344 C 197.09375 157.792969 196.066406 160.363281 193.945312 162.710938 C 192.917969 163.8125 191.527344 165.28125 190.429688 166.527344 C 189.402344 167.628906 188.816406 169.097656 188.816406 170.566406 L 188.816406 175.628906 C 188.746094 176.289062 188.160156 176.878906 187.5 176.878906 Z M 187.5 176.878906 " fill-opacity="1" fill-rule="nonzero"/></g><path fill="#000000" d="M 173.953125 181.722656 C 171.167969 184.804688 166.996094 192.4375 161.429688 195.667969 C 159.527344 196.769531 126.570312 210.347656 123.347656 212.328125 C 114.925781 217.539062 114.488281 222.53125 114.488281 222.53125 C 114.488281 222.53125 112.804688 228.84375 118.515625 225.761719 C 124.886719 222.3125 187.5 189.0625 187.5 189.0625 L 187.5 175.703125 C 182.152344 175.703125 177.320312 177.980469 173.953125 181.722656 Z M 173.953125 181.722656 " fill-opacity="1" fill-rule="nonzero"/><path fill="#000000" d="M 201.046875 181.722656 C 203.832031 184.804688 208.003906 192.4375 213.570312 195.667969 C 215.472656 196.769531 248.429688 210.347656 251.652344 212.328125 C 260.074219 217.613281 260.511719 222.53125 260.511719 222.53125 C 260.511719 222.53125 262.195312 228.84375 256.484375 225.761719 C 250.113281 222.3125 187.5 189.0625 187.5 189.0625 L 187.5 175.703125 C 192.917969 175.703125 197.679688 177.980469 201.046875 181.722656 Z M 201.046875 181.722656 " fill-opacity="1" fill-rule="nonzero"/></svg>