<svg xmlns="http://www.w3.org/2000/svg" xmlns:xlink="http://www.w3.org/1999/xlink" width="500" zoomAndPan="magnify" viewBox="0 0 375 374.999991" height="500" preserveAspectRatio="xMidYMid meet" version="1.0"><defs><clipPath id="92670aa5bc"><path d="M 41 97.507812 L 333 97.507812 L 333 277.507812 L 41 277.507812 Z M 41 97.507812 " clip-rule="nonzero"/></clipPath></defs><g clip-path="url(#92670aa5bc)"><path fill="#000000" d="M 61.226562 245.613281 L 157.921875 199.082031 C 161.421875 197.445312 162.824219 193.238281 161.191406 189.730469 C 159.554688 186.222656 155.351562 184.820312 151.847656 186.457031 L 55.15625 232.988281 C 45.113281 237.898438 39.972656 248.417969 42.542969 259.175781 C 45.113281 269.929688 54.222656 277.414062 65.199219 277.414062 L 309.734375 277.414062 C 320.945312 277.414062 330.050781 270.164062 332.386719 259.175781 C 334.722656 248.183594 329.820312 237.664062 319.777344 232.988281 L 196.691406 173.597656 L 210.238281 143.667969 C 214.910156 133.613281 213.972656 121.921875 207.902344 112.570312 C 201.828125 103.214844 191.554688 97.605469 180.574219 97.605469 C 162.589844 97.605469 147.878906 112.335938 147.878906 130.339844 L 147.878906 139.691406 C 147.878906 143.667969 150.914062 146.707031 154.882812 146.707031 C 158.855469 146.707031 161.890625 143.667969 161.890625 139.691406 L 161.890625 130.339844 C 161.890625 120.050781 170.300781 111.632812 180.574219 111.632812 C 187.113281 111.632812 192.71875 114.675781 196.222656 120.285156 C 199.726562 125.664062 200.195312 132.210938 197.625 138.054688 L 181.277344 174.296875 C 179.640625 177.804688 181.277344 181.78125 184.546875 183.417969 L 313.9375 245.847656 C 318.839844 248.183594 319.777344 252.863281 319.074219 256.367188 C 318.375 259.875 315.570312 263.617188 309.964844 263.617188 L 65.199219 263.617188 C 59.59375 263.617188 56.789062 259.875 56.089844 256.367188 C 55.386719 252.863281 56.324219 247.953125 61.226562 245.613281 Z M 61.226562 245.613281 " fill-opacity="1" fill-rule="nonzero"/></g></svg>